<svg width="45" height="45" viewBox="0 0 45 45" fill="none" xmlns="http://www.w3.org/2000/svg">
<path d="M39.1712 9.02217C38.2135 8.06406 37.0764 7.30401 35.825 6.78546C34.5735 6.2669 33.2321 6 31.8774 6C30.5228 6 29.1814 6.2669 27.9299 6.78546C26.6784 7.30401 25.5413 8.06406 24.5837 9.02217L22.5962 11.0097L20.6087 9.02217C18.6742 7.08775 16.0506 6.001 13.3149 6.001C10.5792 6.001 7.95559 7.08775 6.02117 9.02217C4.08675 10.9566 3 13.5802 3 16.3159C3 19.0516 4.08675 21.6753 6.02117 23.6097L8.00867 25.5972L22.5962 40.1847L37.1837 25.5972L39.1712 23.6097C40.1293 22.652 40.8893 21.515 41.4079 20.2635C41.9264 19.012 42.1933 17.6706 42.1933 16.3159C42.1933 14.9613 41.9264 13.6199 41.4079 12.3684C40.8893 11.1169 40.1293 9.97984 39.1712 9.02217Z" stroke="white" stroke-width="5" stroke-linecap="round" stroke-linejoin="round"/>
</svg>
